<?xml version="1.0" standalone="no"?>
<!DOCTYPE svg PUBLIC "-//W3C//DTD SVG 20010904//EN"
 "http://www.w3.org/TR/2001/REC-SVG-20010904/DTD/svg10.dtd">
<svg version="1.0" xmlns="http://www.w3.org/2000/svg"
 width="2400.000000pt" height="2324.000000pt" viewBox="0 0 2400.000000 2324.000000"
 preserveAspectRatio="xMidYMid meet">
<metadata>
Created by potrace 1.16, written by Peter Selinger 2001-2019
</metadata>
<g transform="translate(0.000000,2324.000000) scale(0.100000,-0.100000)"
fill="#000000" stroke="none">
<path d="M11977 23206 c-141 -73 -307 -219 -462 -406 -796 -960 -1736 -2949
-2208 -4675 -30 -110 -64 -243 -76 -295 -57 -267 -121 -858 -165 -1535 -49
-743 -61 -1105 -61 -1820 0 -568 3 -679 18 -794 9 -74 25 -151 35 -170 l17
-36 3005 -5 c1653 -3 3007 -4 3009 -3 7 4 -20 2604 -29 2813 -48 1072 -151
1616 -514 2705 -254 761 -440 1210 -787 1905 -280 559 -561 1051 -840 1470
-239 359 -393 554 -571 726 -168 161 -245 186 -371 120z"/>
<path d="M23790 18684 c-41 -8 -189 -32 -328 -54 -521 -83 -870 -170 -1392
-348 -1604 -546 -3478 -1644 -4436 -2597 -654 -652 -1914 -2093 -1914 -2189 0
-19 52 -24 392 -38 341 -15 4357 -15 5753 -1 l780 8 157 280 c325 577 488 933
668 1460 217 640 370 1312 439 1940 37 334 45 509 45 990 1 394 -2 477 -15
515 -18 53 -31 56 -149 34z"/>
<path d="M115 18628 c3 -29 21 -296 40 -593 38 -574 53 -756 86 -1005 104
-792 342 -1655 694 -2514 149 -365 427 -992 448 -1013 29 -29 1022 -49 3302
-64 1988 -13 3695 -2 3722 24 30 31 -212 368 -546 757 -437 511 -1027 1135
-1361 1440 -1256 1149 -2928 2133 -4480 2638 -513 167 -837 238 -1465 322
-203 27 -387 52 -408 56 l-37 6 5 -54z"/>
<path d="M9025 12433 c-3369 -9 -6632 -51 -6962 -89 -65 -8 -67 -17 -18 -114
52 -103 148 -240 305 -435 l141 -175 1282 0 c1585 0 7863 16 11432 30 1463 5
3518 13 4567 16 l1908 7 292 373 c161 205 294 378 296 383 3 8 -1832 10 -6245
9 -3436 -2 -6585 -4 -6998 -5z"/>
<path d="M3372 10571 c2 -5 75 -94 163 -198 173 -205 412 -447 460 -468 162
-70 2287 -121 6075 -145 4173 -27 8440 9 9595 80 285 18 342 27 422 66 161 78
321 227 507 474 73 96 136 181 140 188 6 9 -1733 12 -8679 12 -5331 0 -8685
-4 -8683 -9z"/>
<path d="M6638 8831 c-592 -3 -1079 -8 -1082 -11 -8 -9 343 -297 451 -371 382
-260 1243 -671 2088 -996 914 -352 1673 -572 2062 -599 l102 -7 30 30 c32 32
54 96 71 203 14 90 33 931 25 1115 -8 182 -25 281 -65 361 -80 164 -246 229
-675 265 -153 13 -1618 18 -3007 10z"/>
<path d="M10600 8829 c0 -11 203 -388 331 -615 217 -383 653 -977 899 -1225
100 -102 166 -139 244 -139 77 0 125 23 211 102 112 103 235 263 620 808 303
428 408 587 466 704 44 89 52 113 53 164 3 146 -108 186 -552 202 -374 14
-2272 13 -2272 -1z"/>
<path d="M13895 8828 c-3 -7 -23 -94 -45 -193 -74 -326 -99 -635 -107 -1322
-6 -442 -5 -483 10 -483 31 0 462 71 587 96 542 111 1232 328 1935 609 393
157 631 264 1000 450 509 256 766 415 1103 683 111 89 202 164 202 167 0 3
-1053 5 -2340 5 -1863 0 -2342 -3 -2345 -12z"/>
<path d="M8255 5569 c-88 -12 -184 -36 -203 -52 -13 -10 -14 -76 -8 -507 3
-272 9 -629 13 -792 l6 -297 -314 80 c-173 44 -370 96 -439 115 -196 55 -250
47 -279 -44 -34 -108 -32 -571 3 -687 35 -112 75 -145 236 -196 312 -98 578
-425 687 -846 25 -98 27 -124 27 -273 0 -146 -4 -176 -27 -265 -87 -322 -314
-590 -627 -737 -174 -82 -191 -91 -231 -137 -78 -88 -98 -223 -99 -678 0 -169
3 -243 11 -243 6 0 143 47 304 104 314 113 452 153 556 162 82 8 126 -5 161
-50 18 -22 47 -42 83 -55 115 -43 203 -53 548 -58 l327 -5 0 2736 0 2736 -332
-1 c-183 -1 -364 -6 -403 -10z"/>
<path d="M14317 4863 c-3 -612 -6 -727 -19 -776 -21 -76 -49 -107 -101 -107
-21 0 -154 32 -295 71 -398 109 -499 127 -561 94 -52 -26 -56 -54 -56 -355 1
-303 7 -359 56 -457 36 -75 67 -99 179 -142 347 -134 597 -428 696 -818 84
-332 32 -660 -146 -918 -110 -158 -361 -367 -554 -460 -148 -71 -179 -106
-212 -237 -32 -132 -28 -572 7 -712 10 -41 14 -46 39 -46 33 0 188 53 468 159
233 89 312 112 389 114 51 1 56 -1 91 -40 45 -49 84 -66 211 -94 83 -18 141
-22 424 -26 l327 -5 0 2736 0 2736 -469 0 -470 0 -4 -717z"/>
<path d="M1575 4151 c-152 -58 -512 -223 -590 -270 -455 -276 -796 -749 -929
-1286 -46 -186 -51 -238 -50 -495 0 -266 9 -340 63 -552 145 -561 530 -1013
1106 -1298 124 -61 574 -250 596 -250 5 0 9 156 9 348 0 354 -9 474 -45 598
-20 69 -41 92 -100 113 -82 28 -191 108 -328 241 -195 189 -268 306 -309 496
-19 84 -22 131 -22 314 1 401 47 501 392 850 218 219 276 290 332 405 68 138
75 180 75 430 -1 231 -15 337 -52 377 -22 25 -33 23 -148 -21z"/>
<path d="M3645 4176 c-151 -24 -245 -70 -245 -120 0 -12 -12 -33 -26 -47 -23
-22 -34 -24 -112 -23 -73 0 -134 12 -377 72 -576 142 -580 142 -622 35 -16
-43 -18 -80 -18 -333 0 -305 8 -369 56 -447 26 -42 45 -52 122 -64 77 -13 157
-50 274 -131 173 -119 316 -261 405 -405 258 -415 234 -982 -58 -1369 -124
-165 -273 -266 -500 -339 -126 -41 -152 -53 -184 -85 -45 -45 -60 -90 -60
-180 -1 -116 42 -645 54 -659 25 -31 194 2 476 94 247 80 323 98 423 99 l89 1
36 -42 c79 -91 185 -113 560 -120 l282 -5 0 2041 0 2041 -247 -1 c-143 -1
-282 -6 -328 -13z"/>
<path d="M9556 3313 c-9 -1169 -26 -2516 -35 -2788 -9 -246 -7 -258 53 -293
49 -29 154 -60 261 -77 67 -11 595 -55 656 -55 5 0 9 836 9 2045 l0 2045 -469
0 -469 0 -6 -877z"/>
<path d="M12530 4164 c-108 -36 -460 -212 -560 -279 -326 -220 -683 -602 -822
-880 -84 -168 -107 -295 -117 -635 -13 -494 22 -867 105 -1133 54 -169 124
-276 291 -443 398 -399 1128 -820 1314 -760 24 8 40 22 54 51 18 37 20 60 20
305 0 223 -3 275 -18 329 -44 161 -128 272 -339 448 -234 196 -338 319 -429
509 -171 353 -129 748 119 1124 62 93 175 213 237 252 22 14 69 35 105 47 178
58 213 152 213 566 0 333 -30 526 -82 525 -9 0 -50 -12 -91 -26z"/>
<path d="M17272 4179 c-193 -32 -724 -348 -985 -587 -522 -477 -735 -1109
-613 -1822 143 -832 679 -1402 1599 -1699 105 -34 140 -41 190 -39 57 3 63 5
83 36 32 47 39 116 38 387 -1 256 -10 329 -55 417 -35 68 -115 138 -235 202
-60 33 -129 73 -154 89 -226 151 -410 426 -493 737 -28 106 -30 128 -30 280
-1 145 2 172 21 223 105 285 573 784 784 839 30 7 56 21 64 34 29 43 45 168
51 379 7 276 -14 408 -76 479 -37 43 -105 59 -189 45z"/>
<path d="M19433 4175 c-165 -30 -282 -82 -394 -176 -113 -94 -164 -112 -254
-88 -22 5 -146 62 -275 125 -322 156 -383 166 -430 69 -45 -93 -49 -588 -6
-730 35 -115 97 -174 244 -236 105 -43 176 -90 249 -165 159 -162 285 -428
329 -692 22 -138 15 -353 -15 -466 -59 -220 -223 -448 -466 -646 -225 -183
-310 -299 -350 -475 -23 -100 -34 -695 -14 -695 8 0 136 49 284 109 310 126
423 162 514 163 63 1 64 1 100 -40 42 -48 80 -65 210 -93 83 -18 141 -22 424
-26 l327 -5 0 2041 0 2041 -202 -1 c-119 0 -233 -6 -275 -14z"/>
<path d="M21871 4180 c-345 -34 -674 -146 -877 -299 -254 -191 -438 -493 -495
-811 -21 -114 -16 -326 9 -435 78 -344 288 -563 733 -765 324 -147 655 -230
999 -249 190 -11 274 -31 390 -92 228 -118 330 -323 251 -504 -56 -129 -243
-172 -816 -192 -365 -12 -432 22 -556 282 -69 145 -134 214 -232 244 -126 38
-424 53 -637 31 -211 -22 -274 -77 -249 -216 19 -105 205 -439 329 -589 233
-281 598 -450 1105 -510 193 -23 602 -24 784 -1 383 47 685 148 918 308 94 64
234 201 290 283 128 190 183 379 183 629 0 718 -452 1128 -1435 1300 -375 66
-506 99 -674 170 -177 75 -317 181 -365 278 -39 78 -32 134 22 192 93 99 282
153 567 163 335 11 482 -36 607 -193 86 -108 147 -171 199 -205 115 -73 304
-105 564 -96 294 11 381 57 361 192 -16 105 -192 393 -331 543 -249 267 -665
463 -1120 527 -129 19 -404 26 -524 15z"/>
<path d="M6245 4157 c-56 -11 -403 -184 -534 -266 -561 -349 -923 -912 -1002
-1554 -19 -162 -7 -483 26 -637 82 -393 260 -729 535 -1014 170 -176 424 -358
655 -472 145 -71 332 -124 438 -124 51 0 62 4 87 28 36 36 46 75 66 237 21
178 21 345 -1 420 -38 133 -68 169 -274 325 -403 306 -523 461 -583 750 -43
206 -21 434 61 641 82 202 190 356 421 594 215 222 283 328 311 490 23 132 -7
439 -51 525 -30 59 -71 74 -155 57z"/>
</g>
</svg>
